<svg width="396" height="71" viewBox="0 0 396 71" fill="none" xmlns="http://www.w3.org/2000/svg">
<path d="M95.035 37C94.0103 37 93.286 36.788 92.862 36.364C92.4733 35.94 92.279 35.2687 92.279 34.35V3.663C92.279 2.74433 92.491 2.073 92.915 1.649C93.339 1.18967 94.0457 0.96 95.035 0.96H108.073C112.984 0.96 116.606 1.98467 118.938 4.034C121.27 6.08333 122.436 9.13967 122.436 13.203C122.436 18.2557 120.493 21.736 116.606 23.644L121.853 35.039C121.994 35.3217 122.065 35.6043 122.065 35.887C122.065 36.205 121.941 36.47 121.694 36.682C121.482 36.894 121.182 37 120.793 37H113.373C112.843 37 112.419 36.9293 112.101 36.788C111.818 36.6467 111.606 36.3817 111.465 35.993L107.066 25.234H102.985V34.35C102.985 35.2687 102.773 35.94 102.349 36.364C101.925 36.788 101.201 37 100.176 37H95.035ZM106.907 17.655C110.122 17.655 111.73 16.171 111.73 13.203C111.73 10.1997 110.211 8.698 107.172 8.698H102.985V17.655H106.907ZM137.798 37.795C132.957 37.795 129.194 36.5937 126.509 34.191C123.823 31.753 122.481 28.4493 122.481 24.28C122.481 20.1107 123.823 16.8247 126.509 14.422C129.194 11.984 132.957 10.765 137.798 10.765C142.638 10.765 146.401 11.984 149.087 14.422C151.807 16.8247 153.168 20.1107 153.168 24.28C153.168 28.4493 151.807 31.753 149.087 34.191C146.401 36.5937 142.638 37.795 137.798 37.795ZM137.798 30.216C140.907 30.216 142.462 28.2373 142.462 24.28C142.462 20.3933 140.907 18.45 137.798 18.45C134.688 18.45 133.134 20.3933 133.134 24.28C133.134 26.2587 133.54 27.7427 134.353 28.732C135.165 29.7213 136.314 30.216 137.798 30.216ZM166.153 37.795C163.079 37.795 160.676 37 158.945 35.41C157.249 33.7847 156.401 31.3113 156.401 27.99V14.263C156.401 13.3443 156.613 12.673 157.037 12.249C157.461 11.7897 158.167 11.56 159.157 11.56H164.298C165.322 11.56 166.047 11.7897 166.471 12.249C166.895 12.673 167.107 13.3443 167.107 14.263V27.566C167.107 29.58 168.078 30.587 170.022 30.587C171.082 30.587 171.894 30.3043 172.46 29.739C173.025 29.1737 173.308 28.3787 173.308 27.354V14.263C173.308 13.3443 173.52 12.673 173.944 12.249C174.368 11.7897 175.092 11.56 176.117 11.56H181.258C182.282 11.56 183.007 11.7897 183.431 12.249C183.855 12.673 184.067 13.3443 184.067 14.263V35.357C184.067 36.0283 183.943 36.47 183.696 36.682C183.484 36.894 183.007 37 182.265 37H176.806C176.382 37 176.046 36.947 175.799 36.841C175.587 36.735 175.463 36.523 175.428 36.205L175.163 34.562C174.138 35.5513 172.866 36.3463 171.347 36.947C169.827 37.5123 168.096 37.795 166.153 37.795ZM191.409 37C190.385 37 189.66 36.788 189.236 36.364C188.812 35.94 188.6 35.2687 188.6 34.35V13.203C188.6 12.567 188.706 12.143 188.918 11.931C189.166 11.6837 189.66 11.56 190.402 11.56H195.861C196.285 11.56 196.603 11.6307 196.815 11.772C197.063 11.878 197.204 12.09 197.239 12.408L197.504 13.998C198.494 13.0087 199.783 12.2313 201.373 11.666C202.999 11.0653 204.801 10.765 206.779 10.765C209.641 10.765 211.956 11.5777 213.722 13.203C215.489 14.793 216.372 17.1603 216.372 20.305V34.35C216.372 35.2687 216.16 35.94 215.736 36.364C215.348 36.788 214.641 37 213.616 37H208.475C207.451 37 206.709 36.788 206.249 36.364C205.825 35.94 205.613 35.2687 205.613 34.35V20.994C205.613 19.934 205.384 19.1743 204.924 18.715C204.465 18.2557 203.741 18.026 202.751 18.026C201.691 18.026 200.843 18.3087 200.207 18.874C199.607 19.4393 199.306 20.2167 199.306 21.206V34.35C199.306 35.2687 199.094 35.94 198.67 36.364C198.282 36.788 197.575 37 196.55 37H191.409ZM235.477 37.795C230.212 37.795 226.255 36.6467 223.605 34.35C220.955 32.0533 219.63 28.6437 219.63 24.121C219.63 20.0577 220.761 16.8247 223.022 14.422C225.283 11.984 228.481 10.765 232.615 10.765C233.781 10.765 234.912 10.9063 236.007 11.189C237.102 11.4363 237.968 11.772 238.604 12.196V3.663C238.604 2.74433 238.816 2.073 239.24 1.649C239.664 1.18967 240.388 0.96 241.413 0.96H246.342C247.367 0.96 248.091 1.18967 248.515 1.649C248.939 2.073 249.151 2.74433 249.151 3.663V34.032C247.632 35.1273 245.653 36.0283 243.215 36.735C240.777 37.4417 238.198 37.795 235.477 37.795ZM235.795 30.587C236.996 30.587 237.95 30.3927 238.657 30.004V21.471C238.657 19.139 237.403 17.973 234.894 17.973C233.339 17.973 232.173 18.5383 231.396 19.669C230.654 20.7643 230.283 22.266 230.283 24.174C230.283 26.4707 230.742 28.1137 231.661 29.103C232.58 30.0923 233.958 30.587 235.795 30.587ZM273.962 37C272.937 37 272.213 36.788 271.789 36.364C271.4 35.94 271.206 35.2687 271.206 34.35V3.663C271.206 2.74433 271.418 2.073 271.842 1.649C272.266 1.18967 272.972 0.96 273.962 0.96H287C291.911 0.96 295.533 1.98467 297.865 4.034C300.197 6.08333 301.363 9.13967 301.363 13.203C301.363 18.2557 299.419 21.736 295.533 23.644L300.78 35.039C300.921 35.3217 300.992 35.6043 300.992 35.887C300.992 36.205 300.868 36.47 300.621 36.682C300.409 36.894 300.108 37 299.72 37H292.3C291.77 37 291.346 36.9293 291.028 36.788C290.745 36.6467 290.533 36.3817 290.392 35.993L285.993 25.234H281.912V34.35C281.912 35.2687 281.7 35.94 281.276 36.364C280.852 36.788 280.127 37 279.103 37H273.962ZM285.834 17.655C289.049 17.655 290.657 16.171 290.657 13.203C290.657 10.1997 289.137 8.698 286.099 8.698H281.912V17.655H285.834ZM316.724 37.795C311.884 37.795 308.121 36.5937 305.435 34.191C302.75 31.753 301.407 28.4493 301.407 24.28C301.407 20.1107 302.75 16.8247 305.435 14.422C308.121 11.984 311.884 10.765 316.724 10.765C321.565 10.765 325.328 11.984 328.013 14.422C330.734 16.8247 332.094 20.1107 332.094 24.28C332.094 28.4493 330.734 31.753 328.013 34.191C325.328 36.5937 321.565 37.795 316.724 37.795ZM316.724 30.216C319.834 30.216 321.388 28.2373 321.388 24.28C321.388 20.3933 319.834 18.45 316.724 18.45C313.615 18.45 312.06 20.3933 312.06 24.28C312.06 26.2587 312.467 27.7427 313.279 28.732C314.092 29.7213 315.24 30.216 316.724 30.216ZM348.663 37.795C343.716 37.795 339.9 36.6467 337.215 34.35C334.529 32.0533 333.187 28.7143 333.187 24.333C333.187 21.6477 333.805 19.2803 335.042 17.231C336.278 15.1817 338.063 13.5917 340.395 12.461C342.762 11.3303 345.553 10.765 348.769 10.765C351.207 10.765 353.256 10.9947 354.917 11.454C356.613 11.9133 358.114 12.62 359.422 13.574C359.81 13.8213 360.005 14.1393 360.005 14.528C360.005 14.8107 359.863 15.1817 359.581 15.641L357.408 19.404C357.16 19.8987 356.86 20.146 356.507 20.146C356.295 20.146 355.959 20.0047 355.5 19.722C354.546 19.1213 353.645 18.6797 352.797 18.397C351.984 18.1143 350.959 17.973 349.723 17.973C347.956 17.973 346.525 18.5383 345.43 19.669C344.37 20.7997 343.84 22.3543 343.84 24.333C343.84 26.347 344.387 27.9017 345.483 28.997C346.578 30.057 348.08 30.587 349.988 30.587C351.118 30.587 352.143 30.428 353.062 30.11C353.98 29.792 354.917 29.3503 355.871 28.785C356.365 28.5023 356.719 28.361 356.931 28.361C357.249 28.361 357.531 28.6083 357.779 29.103L360.164 33.184C360.34 33.5373 360.429 33.82 360.429 34.032C360.429 34.35 360.217 34.6503 359.793 34.933C358.309 35.887 356.683 36.5937 354.917 37.053C353.185 37.5477 351.101 37.795 348.663 37.795ZM392.682 34.986C392.929 35.2687 393.053 35.5867 393.053 35.94C393.053 36.258 392.947 36.523 392.735 36.735C392.523 36.9117 392.24 37 391.887 37H383.672C383.177 37 382.806 36.9647 382.559 36.894C382.347 36.788 382.117 36.5937 381.87 36.311L374.662 26.506V34.35C374.662 35.2687 374.45 35.94 374.026 36.364C373.602 36.788 372.877 37 371.853 37H366.712C365.687 37 364.963 36.788 364.539 36.364C364.15 35.94 363.956 35.2687 363.956 34.35V3.663C363.956 2.74433 364.168 2.073 364.592 1.649C365.016 1.18967 365.722 0.96 366.712 0.96H371.853C372.877 0.96 373.602 1.18967 374.026 1.649C374.45 2.073 374.662 2.74433 374.662 3.663V21.418L381.658 12.302C381.87 12.0193 382.099 11.825 382.347 11.719C382.594 11.613 382.965 11.56 383.46 11.56H391.675C392.028 11.56 392.293 11.666 392.47 11.878C392.682 12.0547 392.788 12.302 392.788 12.62C392.788 12.9733 392.664 13.2913 392.417 13.574L383.354 23.962L392.682 34.986ZM100.719 66.405C97.515 66.405 95.031 65.595 93.267 63.975C91.503 62.337 90.621 59.952 90.621 56.82C90.621 53.67 91.476 51.285 93.186 49.665C94.914 48.045 97.371 47.235 100.557 47.235C101.943 47.235 103.194 47.379 104.31 47.667C105.426 47.937 106.362 48.324 107.118 48.828C107.316 48.954 107.415 49.116 107.415 49.314C107.415 49.44 107.352 49.629 107.226 49.881L106.065 51.852C105.957 52.086 105.813 52.203 105.633 52.203C105.525 52.203 105.345 52.14 105.093 52.014C104.013 51.42 102.744 51.123 101.286 51.123C99.612 51.123 98.316 51.609 97.398 52.581C96.498 53.535 96.048 54.948 96.048 56.82C96.048 58.692 96.534 60.114 97.506 61.086C98.478 62.058 99.801 62.544 101.475 62.544C102.951 62.544 104.256 62.247 105.39 61.653C105.642 61.527 105.822 61.464 105.93 61.464C106.092 61.464 106.236 61.572 106.362 61.788L107.577 63.867C107.685 64.047 107.739 64.209 107.739 64.353C107.739 64.515 107.631 64.677 107.415 64.839C105.903 65.883 103.671 66.405 100.719 66.405ZM114.94 66C114.418 66 114.049 65.892 113.833 65.676C113.635 65.46 113.536 65.118 113.536 64.65V49.017C113.536 48.549 113.644 48.207 113.86 47.991C114.076 47.757 114.436 47.64 114.94 47.64H117.559C118.081 47.64 118.45 47.757 118.666 47.991C118.882 48.207 118.99 48.549 118.99 49.017V64.65C118.99 65.118 118.882 65.46 118.666 65.676C118.45 65.892 118.081 66 117.559 66H114.94ZM132.682 66.405C131.17 66.405 129.82 66.153 128.632 65.649C127.462 65.145 126.535 64.389 125.851 63.381C125.167 62.373 124.825 61.14 124.825 59.682C124.825 57.396 125.473 55.65 126.769 54.444C128.065 53.238 129.928 52.635 132.358 52.635C134.734 52.635 136.534 53.229 137.758 54.417C139 55.587 139.621 57.216 139.621 59.304C139.621 60.204 139.225 60.654 138.433 60.654H129.955C129.955 61.428 130.243 62.022 130.819 62.436C131.413 62.85 132.304 63.057 133.492 63.057C134.23 63.057 134.842 62.994 135.328 62.868C135.832 62.724 136.336 62.517 136.84 62.247C137.056 62.157 137.2 62.112 137.272 62.112C137.434 62.112 137.569 62.22 137.677 62.436L138.595 64.164C138.685 64.344 138.73 64.479 138.73 64.569C138.73 64.731 138.622 64.884 138.406 65.028C137.668 65.514 136.831 65.865 135.895 66.081C134.959 66.297 133.888 66.405 132.682 66.405ZM134.761 57.981C134.761 57.297 134.563 56.766 134.167 56.388C133.771 56.01 133.177 55.821 132.385 55.821C131.593 55.821 130.99 56.019 130.576 56.415C130.162 56.793 129.955 57.315 129.955 57.981H134.761ZM150.495 66.405C148.803 66.405 147.444 65.865 146.418 64.785C145.41 63.687 144.906 62.148 144.906 60.168C144.906 58.656 145.248 57.333 145.932 56.199C146.634 55.065 147.615 54.192 148.875 53.58C150.153 52.95 151.62 52.635 153.276 52.635C154.644 52.635 155.85 52.788 156.894 53.094C157.956 53.382 158.928 53.805 159.81 54.363V65.163C159.81 65.505 159.747 65.73 159.621 65.838C159.495 65.946 159.243 66 158.865 66H156.111C155.913 66 155.76 65.973 155.652 65.919C155.544 65.847 155.454 65.739 155.382 65.595L155.031 64.785C154.509 65.343 153.879 65.748 153.141 66C152.421 66.27 151.539 66.405 150.495 66.405ZM152.52 62.733C153.222 62.733 153.771 62.562 154.167 62.22C154.563 61.878 154.761 61.392 154.761 60.762V56.55C154.419 56.388 153.987 56.307 153.465 56.307C152.511 56.307 151.746 56.64 151.17 57.306C150.612 57.972 150.333 58.908 150.333 60.114C150.333 61.86 151.062 62.733 152.52 62.733ZM167.617 66C167.095 66 166.726 65.892 166.51 65.676C166.294 65.46 166.186 65.118 166.186 64.65V53.877C166.186 53.553 166.24 53.337 166.348 53.229C166.474 53.103 166.726 53.04 167.104 53.04H169.885C170.101 53.04 170.263 53.076 170.371 53.148C170.497 53.202 170.569 53.31 170.587 53.472L170.722 54.282C171.226 53.778 171.883 53.382 172.693 53.094C173.521 52.788 174.439 52.635 175.447 52.635C176.905 52.635 178.084 53.049 178.984 53.877C179.884 54.687 180.334 55.893 180.334 57.495V64.65C180.334 65.118 180.226 65.46 180.01 65.676C179.812 65.892 179.452 66 178.93 66H176.311C175.789 66 175.411 65.892 175.177 65.676C174.961 65.46 174.853 65.118 174.853 64.65V57.846C174.853 57.306 174.736 56.919 174.502 56.685C174.268 56.451 173.899 56.334 173.395 56.334C172.855 56.334 172.423 56.478 172.099 56.766C171.793 57.054 171.64 57.45 171.64 57.954V64.65C171.64 65.118 171.532 65.46 171.316 65.676C171.118 65.892 170.758 66 170.236 66H167.617ZM188.474 51.663C187.862 51.663 187.394 51.501 187.07 51.177C186.746 50.835 186.584 50.439 186.584 49.989V49.341C186.584 48.873 186.746 48.477 187.07 48.153C187.394 47.811 187.862 47.64 188.474 47.64H190.418C191.048 47.64 191.525 47.811 191.849 48.153C192.173 48.477 192.335 48.873 192.335 49.341V49.989C192.335 50.439 192.173 50.835 191.849 51.177C191.525 51.501 191.048 51.663 190.418 51.663H188.474ZM188.15 66C187.628 66 187.259 65.892 187.043 65.676C186.827 65.46 186.719 65.118 186.719 64.65V54.417C186.719 53.949 186.827 53.607 187.043 53.391C187.259 53.157 187.628 53.04 188.15 53.04H190.742C191.264 53.04 191.633 53.157 191.849 53.391C192.083 53.607 192.2 53.949 192.2 54.417V64.65C192.2 65.118 192.083 65.46 191.849 65.676C191.633 65.892 191.264 66 190.742 66H188.15ZM200.133 66C199.611 66 199.242 65.892 199.026 65.676C198.81 65.46 198.702 65.118 198.702 64.65V53.877C198.702 53.553 198.756 53.337 198.864 53.229C198.99 53.103 199.242 53.04 199.62 53.04H202.401C202.617 53.04 202.779 53.076 202.887 53.148C203.013 53.202 203.085 53.31 203.103 53.472L203.238 54.282C203.742 53.778 204.399 53.382 205.209 53.094C206.037 52.788 206.955 52.635 207.963 52.635C209.421 52.635 210.6 53.049 211.5 53.877C212.4 54.687 212.85 55.893 212.85 57.495V64.65C212.85 65.118 212.742 65.46 212.526 65.676C212.328 65.892 211.968 66 211.446 66H208.827C208.305 66 207.927 65.892 207.693 65.676C207.477 65.46 207.369 65.118 207.369 64.65V57.846C207.369 57.306 207.252 56.919 207.018 56.685C206.784 56.451 206.415 56.334 205.911 56.334C205.371 56.334 204.939 56.478 204.615 56.766C204.309 57.054 204.156 57.45 204.156 57.954V64.65C204.156 65.118 204.048 65.46 203.832 65.676C203.634 65.892 203.274 66 202.752 66H200.133ZM226.201 70.59C225.121 70.59 224.014 70.464 222.88 70.212C221.764 69.978 220.936 69.672 220.396 69.294C220.27 69.186 220.207 69.069 220.207 68.943C220.207 68.853 220.234 68.763 220.288 68.673L221.449 66.54C221.503 66.45 221.557 66.369 221.611 66.297C221.683 66.243 221.755 66.216 221.827 66.216C221.863 66.216 221.971 66.252 222.151 66.324C222.997 66.756 224.167 66.972 225.661 66.972C226.507 66.972 227.146 66.792 227.578 66.432C228.01 66.072 228.226 65.487 228.226 64.677C227.866 64.929 227.416 65.136 226.876 65.298C226.336 65.442 225.76 65.514 225.148 65.514C223.006 65.514 221.368 64.983 220.234 63.921C219.118 62.859 218.56 61.32 218.56 59.304C218.56 57.108 219.244 55.452 220.612 54.336C221.98 53.202 224.005 52.635 226.687 52.635C228.037 52.635 229.324 52.824 230.548 53.202C231.772 53.58 232.789 54.057 233.599 54.633V63.246C233.599 65.442 232.969 67.215 231.709 68.565C230.449 69.915 228.613 70.59 226.201 70.59ZM226.336 61.707C227.632 61.707 228.28 61.086 228.28 59.844V56.577C227.902 56.415 227.272 56.334 226.39 56.334C225.598 56.334 224.995 56.532 224.581 56.928C224.185 57.324 223.987 58.035 223.987 59.061C223.987 59.979 224.176 60.654 224.554 61.086C224.932 61.5 225.526 61.707 226.336 61.707ZM260.413 66.405C258.901 66.405 257.47 66.252 256.12 65.946C254.77 65.622 253.681 65.172 252.853 64.596C252.547 64.398 252.394 64.191 252.394 63.975C252.394 63.831 252.448 63.678 252.556 63.516L253.879 61.41C254.023 61.194 254.167 61.086 254.311 61.086C254.401 61.086 254.554 61.149 254.77 61.275C255.436 61.653 256.192 61.959 257.038 62.193C257.884 62.427 258.721 62.544 259.549 62.544C260.395 62.544 261.016 62.418 261.412 62.166C261.826 61.914 262.033 61.509 262.033 60.951C262.033 60.411 261.808 59.988 261.358 59.682C260.926 59.376 260.107 58.989 258.901 58.521C257.083 57.837 255.661 57.072 254.635 56.226C253.627 55.362 253.123 54.192 253.123 52.716C253.123 50.934 253.762 49.575 255.04 48.639C256.318 47.703 258.019 47.235 260.143 47.235C261.619 47.235 262.879 47.37 263.923 47.64C264.985 47.892 265.885 48.288 266.623 48.828C266.929 49.062 267.082 49.278 267.082 49.476C267.082 49.602 267.028 49.746 266.92 49.908L265.597 52.014C265.435 52.23 265.291 52.338 265.165 52.338C265.075 52.338 264.922 52.275 264.706 52.149C263.662 51.465 262.42 51.123 260.98 51.123C260.206 51.123 259.612 51.249 259.198 51.501C258.784 51.753 258.577 52.167 258.577 52.743C258.577 53.139 258.685 53.463 258.901 53.715C259.117 53.967 259.405 54.192 259.765 54.39C260.143 54.57 260.719 54.804 261.493 55.092L262.006 55.281C263.338 55.803 264.382 56.307 265.138 56.793C265.912 57.261 266.497 57.846 266.893 58.548C267.289 59.232 267.487 60.096 267.487 61.14C267.487 62.742 266.884 64.02 265.678 64.974C264.49 65.928 262.735 66.405 260.413 66.405ZM280.649 66.405C279.137 66.405 277.787 66.153 276.599 65.649C275.429 65.145 274.502 64.389 273.818 63.381C273.134 62.373 272.792 61.14 272.792 59.682C272.792 57.396 273.44 55.65 274.736 54.444C276.032 53.238 277.895 52.635 280.325 52.635C282.701 52.635 284.501 53.229 285.725 54.417C286.967 55.587 287.588 57.216 287.588 59.304C287.588 60.204 287.192 60.654 286.4 60.654H277.922C277.922 61.428 278.21 62.022 278.786 62.436C279.38 62.85 280.271 63.057 281.459 63.057C282.197 63.057 282.809 62.994 283.295 62.868C283.799 62.724 284.303 62.517 284.807 62.247C285.023 62.157 285.167 62.112 285.239 62.112C285.401 62.112 285.536 62.22 285.644 62.436L286.562 64.164C286.652 64.344 286.697 64.479 286.697 64.569C286.697 64.731 286.589 64.884 286.373 65.028C285.635 65.514 284.798 65.865 283.862 66.081C282.926 66.297 281.855 66.405 280.649 66.405ZM282.728 57.981C282.728 57.297 282.53 56.766 282.134 56.388C281.738 56.01 281.144 55.821 280.352 55.821C279.56 55.821 278.957 56.019 278.543 56.415C278.129 56.793 277.922 57.315 277.922 57.981H282.728ZM294.844 66C294.322 66 293.953 65.892 293.737 65.676C293.521 65.46 293.413 65.118 293.413 64.65V53.877C293.413 53.553 293.467 53.337 293.575 53.229C293.701 53.103 293.953 53.04 294.331 53.04H297.112C297.328 53.04 297.49 53.076 297.598 53.148C297.724 53.202 297.796 53.31 297.814 53.472L297.949 54.255C299.029 53.175 300.334 52.635 301.864 52.635C302.458 52.635 302.944 52.689 303.322 52.797C303.7 52.887 304.042 53.04 304.348 53.256C304.528 53.382 304.618 53.526 304.618 53.688C304.618 53.742 304.6 53.841 304.564 53.985L303.7 56.442C303.628 56.694 303.493 56.82 303.295 56.82C303.205 56.82 303.097 56.784 302.971 56.712C302.485 56.442 301.9 56.307 301.216 56.307C300.532 56.307 299.965 56.496 299.515 56.874C299.083 57.252 298.867 57.756 298.867 58.386V64.65C298.867 65.118 298.759 65.46 298.543 65.676C298.345 65.892 297.985 66 297.463 66H294.844ZM315.983 66C315.641 66 315.38 65.937 315.2 65.811C315.038 65.685 314.876 65.451 314.714 65.109L309.503 54.066C309.413 53.886 309.368 53.724 309.368 53.58C309.368 53.418 309.413 53.292 309.503 53.202C309.611 53.094 309.755 53.04 309.935 53.04H313.877C314.147 53.04 314.354 53.094 314.498 53.202C314.642 53.31 314.759 53.481 314.849 53.715L317.171 59.871L319.493 53.715C319.583 53.481 319.7 53.31 319.844 53.202C319.988 53.094 320.195 53.04 320.465 53.04H324.434C324.614 53.04 324.749 53.094 324.839 53.202C324.947 53.292 325.001 53.418 325.001 53.58C325.001 53.724 324.956 53.886 324.866 54.066L319.655 65.109C319.493 65.451 319.322 65.685 319.142 65.811C318.98 65.937 318.728 66 318.386 66H315.983ZM332.723 51.663C332.111 51.663 331.643 51.501 331.319 51.177C330.995 50.835 330.833 50.439 330.833 49.989V49.341C330.833 48.873 330.995 48.477 331.319 48.153C331.643 47.811 332.111 47.64 332.723 47.64H334.667C335.297 47.64 335.774 47.811 336.098 48.153C336.422 48.477 336.584 48.873 336.584 49.341V49.989C336.584 50.439 336.422 50.835 336.098 51.177C335.774 51.501 335.297 51.663 334.667 51.663H332.723ZM332.399 66C331.877 66 331.508 65.892 331.292 65.676C331.076 65.46 330.968 65.118 330.968 64.65V54.417C330.968 53.949 331.076 53.607 331.292 53.391C331.508 53.157 331.877 53.04 332.399 53.04H334.991C335.513 53.04 335.882 53.157 336.098 53.391C336.332 53.607 336.449 53.949 336.449 54.417V64.65C336.449 65.118 336.332 65.46 336.098 65.676C335.882 65.892 335.513 66 334.991 66H332.399ZM350.296 66.405C347.776 66.405 345.832 65.82 344.464 64.65C343.096 63.48 342.412 61.779 342.412 59.547C342.412 58.179 342.727 56.973 343.357 55.929C343.987 54.885 344.896 54.075 346.084 53.499C347.29 52.923 348.712 52.635 350.35 52.635C351.592 52.635 352.636 52.752 353.482 52.986C354.346 53.22 355.111 53.58 355.777 54.066C355.975 54.192 356.074 54.354 356.074 54.552C356.074 54.696 356.002 54.885 355.858 55.119L354.751 57.036C354.625 57.288 354.472 57.414 354.292 57.414C354.184 57.414 354.013 57.342 353.779 57.198C353.293 56.892 352.834 56.667 352.402 56.523C351.988 56.379 351.466 56.307 350.836 56.307C349.936 56.307 349.207 56.595 348.649 57.171C348.109 57.747 347.839 58.539 347.839 59.547C347.839 60.573 348.118 61.365 348.676 61.923C349.234 62.463 349.999 62.733 350.971 62.733C351.547 62.733 352.069 62.652 352.537 62.49C353.005 62.328 353.482 62.103 353.968 61.815C354.22 61.671 354.4 61.599 354.508 61.599C354.67 61.599 354.814 61.725 354.94 61.977L356.155 64.056C356.245 64.236 356.29 64.38 356.29 64.488C356.29 64.65 356.182 64.803 355.966 64.947C355.21 65.433 354.382 65.793 353.482 66.027C352.6 66.279 351.538 66.405 350.296 66.405ZM369.454 66.405C367.942 66.405 366.592 66.153 365.404 65.649C364.234 65.145 363.307 64.389 362.623 63.381C361.939 62.373 361.597 61.14 361.597 59.682C361.597 57.396 362.245 55.65 363.541 54.444C364.837 53.238 366.7 52.635 369.13 52.635C371.506 52.635 373.306 53.229 374.53 54.417C375.772 55.587 376.393 57.216 376.393 59.304C376.393 60.204 375.997 60.654 375.205 60.654H366.727C366.727 61.428 367.015 62.022 367.591 62.436C368.185 62.85 369.076 63.057 370.264 63.057C371.002 63.057 371.614 62.994 372.1 62.868C372.604 62.724 373.108 62.517 373.612 62.247C373.828 62.157 373.972 62.112 374.044 62.112C374.206 62.112 374.341 62.22 374.449 62.436L375.367 64.164C375.457 64.344 375.502 64.479 375.502 64.569C375.502 64.731 375.394 64.884 375.178 65.028C374.44 65.514 373.603 65.865 372.667 66.081C371.731 66.297 370.66 66.405 369.454 66.405ZM371.533 57.981C371.533 57.297 371.335 56.766 370.939 56.388C370.543 56.01 369.949 55.821 369.157 55.821C368.365 55.821 367.762 56.019 367.348 56.415C366.934 56.793 366.727 57.315 366.727 57.981H371.533ZM388.482 66.405C385.944 66.405 383.847 65.937 382.191 65.001C381.849 64.785 381.678 64.596 381.678 64.434C381.678 64.344 381.723 64.209 381.813 64.029L382.947 62.004C383.055 61.788 383.19 61.68 383.352 61.68C383.46 61.68 383.613 61.734 383.811 61.842C384.315 62.112 384.954 62.364 385.728 62.598C386.52 62.814 387.222 62.922 387.834 62.922C388.41 62.922 388.824 62.868 389.076 62.76C389.328 62.634 389.454 62.436 389.454 62.166C389.454 61.914 389.274 61.707 388.914 61.545C388.572 61.365 387.942 61.14 387.024 60.87L386.43 60.708C384.936 60.258 383.856 59.745 383.19 59.169C382.524 58.593 382.191 57.774 382.191 56.712C382.191 55.398 382.758 54.39 383.892 53.688C385.026 52.986 386.547 52.635 388.455 52.635C389.643 52.635 390.678 52.743 391.56 52.959C392.442 53.175 393.288 53.499 394.098 53.931C394.422 54.111 394.584 54.309 394.584 54.525C394.584 54.651 394.53 54.813 394.422 55.011L393.315 56.766C393.189 56.964 393.063 57.063 392.937 57.063C392.829 57.063 392.685 57.009 392.505 56.901C392.073 56.667 391.569 56.478 390.993 56.334C390.417 56.19 389.859 56.118 389.319 56.118C388.077 56.118 387.456 56.388 387.456 56.928C387.456 57.18 387.654 57.396 388.05 57.576C388.464 57.738 389.094 57.918 389.94 58.116C390.138 58.17 390.408 58.242 390.75 58.332C391.11 58.422 391.407 58.512 391.641 58.602C392.505 58.908 393.171 59.223 393.639 59.547C394.107 59.853 394.44 60.222 394.638 60.654C394.836 61.068 394.935 61.599 394.935 62.247C394.935 63.021 394.701 63.723 394.233 64.353C393.765 64.965 393.045 65.46 392.073 65.838C391.101 66.216 389.904 66.405 388.482 66.405Z" fill="#2E8CAD"/>
<g clip-path="url(#clip0_30_94)">
<path d="M26.4447 58.2037H21.5161V50.7617H48.4863V58.2037H43.5551C43.3087 58.2037 43.0724 58.3014 42.8981 58.4754C42.7239 58.6493 42.626 58.8852 42.626 59.1312C42.626 59.3772 42.7239 59.6131 42.8981 59.787C43.0724 59.9609 43.3087 60.0587 43.5551 60.0587H48.5204C49.0033 60.058 49.4662 59.8662 49.8076 59.5253C50.1491 59.1845 50.3412 58.7224 50.3419 58.2403V50.7316C50.3412 50.2496 50.1491 49.7875 49.8076 49.4466C49.4662 49.1058 49.0033 48.914 48.5204 48.9133H21.4807C20.9977 48.9136 20.5346 49.1053 20.1931 49.4462C19.8515 49.7872 19.6595 50.2494 19.6592 50.7316V58.2403C19.6599 58.7224 19.852 59.1845 20.1935 59.5253C20.5349 59.8662 20.9978 60.058 21.4807 60.0587H26.4447C26.6911 60.0587 26.9274 59.9609 27.1016 59.787C27.2759 59.6131 27.3738 59.3772 27.3738 59.1312C27.3738 58.8852 27.2759 58.6493 27.1016 58.4754C26.9274 58.3014 26.6911 58.2037 26.4447 58.2037Z" fill="#2E8CAD"/>
<path d="M47.6559 52.7279C47.6559 52.6669 47.6438 52.6066 47.6205 52.5503C47.5971 52.4941 47.5628 52.443 47.5196 52.3999C47.4763 52.3569 47.425 52.3228 47.3686 52.2996C47.3122 52.2764 47.2517 52.2646 47.1907 52.2648H22.8164C22.6934 52.2648 22.5754 52.3136 22.4884 52.4004C22.4014 52.4872 22.3525 52.605 22.3525 52.7279C22.3525 52.8507 22.4014 52.9685 22.4884 53.0553C22.5754 53.1421 22.6934 53.1909 22.8164 53.1909H47.1907C47.2517 53.1911 47.3122 53.1793 47.3686 53.1561C47.425 53.1329 47.4763 53.0988 47.5196 53.0558C47.5628 53.0127 47.5971 52.9616 47.6205 52.9054C47.6438 52.8491 47.6559 52.7888 47.6559 52.7279Z" fill="#2E8CAD"/>
<path d="M16.2039 45.4611C16.0824 45.4724 15.9644 45.5075 15.8565 45.5644C15.7487 45.6213 15.6532 45.6989 15.5754 45.7927C15.4976 45.8865 15.4391 45.9947 15.4033 46.111C15.3674 46.2274 15.3549 46.3497 15.3665 46.4709L16.3808 57.2553C16.4026 57.4849 16.5093 57.6981 16.6801 57.8534C16.851 58.0087 17.0736 58.0949 17.3046 58.0951H17.3924C17.6376 58.0719 17.8635 57.9525 18.0205 57.7632C18.1775 57.5738 18.2528 57.33 18.2298 57.0852L17.2155 46.2996C17.2043 46.1782 17.1693 46.0602 17.1124 45.9523C17.0555 45.8444 16.9778 45.7488 16.8838 45.6709C16.7899 45.5931 16.6815 45.5344 16.5648 45.4984C16.4481 45.4624 16.3254 45.4497 16.2039 45.4611Z" fill="#2E8CAD"/>
<path d="M14.3654 32.6465C14.2784 32.7421 14.2124 32.8548 14.1716 32.9774C14.1308 33.0999 14.116 33.2296 14.1282 33.3581L14.7965 40.4404C14.8333 40.6736 14.9577 40.8839 15.1445 41.0287C15.3312 41.1734 15.5662 41.2416 15.8016 41.2195C16.037 41.1973 16.255 41.0864 16.4113 40.9093C16.5677 40.7322 16.6505 40.5023 16.6429 40.2664L16.0702 34.198H53.929L51.7628 57.0813C51.7398 57.3261 51.8151 57.5699 51.9721 57.7593C52.1291 57.9486 52.355 58.068 52.6002 58.0912C52.629 58.0912 52.6592 58.0912 52.688 58.0912C52.9179 58.0893 53.1389 58.0024 53.3083 57.8473C53.4778 57.6922 53.5836 57.4799 53.6053 57.2514L55.8619 33.3542C55.8739 33.2257 55.8589 33.0961 55.8179 32.9736C55.7769 32.8512 55.7107 32.7387 55.6236 32.6433C55.5366 32.5479 55.4305 32.4716 55.3122 32.4195C55.1939 32.3673 55.066 32.3404 54.9367 32.3404H15.052C14.9225 32.3409 14.7946 32.3684 14.6763 32.4211C14.5581 32.4738 14.4522 32.5506 14.3654 32.6465Z" fill="#2E8CAD"/>
<path d="M20.7419 39.4973C20.6324 39.5443 20.5452 39.6315 20.4982 39.7408C20.4512 39.8502 20.4481 39.9734 20.4895 40.085C20.5308 40.1966 20.6135 40.2881 20.7205 40.3406C20.8274 40.3931 20.9505 40.4026 21.0643 40.3672C21.4557 40.2201 21.7935 39.9585 22.0334 39.6165C22.2734 39.2745 22.4042 38.8682 22.4088 38.4507C22.4107 38.1803 22.3592 37.9122 22.2573 37.6617C22.1554 37.4111 22.0051 37.1831 21.8149 36.9906C21.6247 36.798 21.3984 36.6448 21.1488 36.5395C20.8993 36.4343 20.6315 36.3792 20.3606 36.3773H20.3462C19.8017 36.378 19.2795 36.5931 18.893 36.976C18.5066 37.3588 18.2871 37.8785 18.2822 38.422C18.2819 38.5448 18.3302 38.6628 18.4165 38.7503C18.5029 38.8377 18.6205 38.8876 18.7435 38.889C18.866 38.8886 18.9834 38.8401 19.0702 38.7539C19.1571 38.6677 19.2064 38.5508 19.2074 38.4285C19.2102 38.1297 19.3309 37.8441 19.5434 37.6337C19.7559 37.4233 20.043 37.3051 20.3422 37.3048H20.3501C20.6509 37.3069 20.9385 37.428 21.1498 37.6417C21.3611 37.8553 21.4788 38.144 21.4771 38.4442C21.4747 38.6731 21.4033 38.8961 21.2722 39.0839C21.1411 39.2717 20.9563 39.4158 20.7419 39.4973Z" fill="#2E8CAD"/>
<path d="M15.2924 29.9177C15.2306 30.1557 15.2661 30.4084 15.3909 30.6204C15.5157 30.8323 15.7197 30.9861 15.9581 31.0479C16.0348 31.0675 16.1135 31.0776 16.1927 31.078C16.3982 31.0777 16.5978 31.0093 16.7602 30.8836C16.9226 30.7579 17.0387 30.582 17.0903 30.3834C17.2766 29.6704 17.6214 29.0083 18.099 28.4464C18.5766 27.8845 19.1748 27.4371 19.8492 27.1374C20.5236 26.8377 21.2569 26.6935 21.9948 26.7153C22.7327 26.7371 23.4562 26.9245 24.1117 27.2635C24.2711 27.3575 24.455 27.4017 24.6397 27.3905C24.8245 27.3793 25.0017 27.3132 25.1485 27.2007C25.2954 27.0881 25.4051 26.9343 25.4637 26.759C25.5223 26.5837 25.5269 26.3949 25.4772 26.217C25.3665 25.7516 25.3629 25.2673 25.4666 24.8003C25.5703 24.3334 25.7787 23.896 26.0761 23.5209C26.3735 23.1459 26.7521 22.843 27.1835 22.635C27.615 22.427 28.0881 22.3193 28.5672 22.32C29.0641 22.3178 29.5544 22.4335 29.9978 22.6575C30.4411 22.8815 30.8249 23.2075 31.1173 23.6085C31.2228 23.7484 31.3658 23.8555 31.5298 23.9176C31.6938 23.9798 31.872 23.9943 32.0439 23.9595C32.2158 23.9248 32.3743 23.8422 32.5011 23.7213C32.628 23.6003 32.7179 23.4461 32.7606 23.2763C32.8714 22.8118 33.1015 22.3841 33.4283 22.0355C33.755 21.6868 34.1672 21.4292 34.6241 21.2881C35.081 21.1469 35.5669 21.1271 36.0338 21.2305C36.5008 21.3339 36.9327 21.557 37.2869 21.8778C37.3907 21.9714 37.5142 22.0404 37.6484 22.0796C37.7826 22.1188 37.924 22.1273 38.0619 22.1044C38.1998 22.0815 38.3308 22.0279 38.4451 21.9474C38.5593 21.867 38.6539 21.7618 38.7218 21.6398C39.4025 20.42 40.5333 19.5137 41.8735 19.1139C43.2136 18.7141 44.6572 18.8525 45.8967 19.4995C47.1361 20.1466 48.0735 21.2512 48.5092 22.578C48.9449 23.9048 48.8444 25.3489 48.2291 26.6029C48.1594 26.7444 48.1269 26.9013 48.1348 27.0587C48.1427 27.2162 48.1907 27.3691 48.2743 27.5029C48.3578 27.6367 48.4742 27.7471 48.6123 27.8235C48.7505 27.9 48.9059 27.94 49.0638 27.9398C49.1435 27.9397 49.2228 27.9292 49.2997 27.9084C49.5629 27.84 49.8337 27.8052 50.1056 27.8051C50.8364 27.8061 51.5445 28.0589 52.1101 28.5208C52.6758 28.9827 53.0643 29.6254 53.2101 30.3402C53.2587 30.5812 53.4013 30.793 53.6064 30.929C53.8115 31.065 54.0623 31.1142 54.3037 31.0656C54.545 31.017 54.7572 30.8747 54.8935 30.67C55.0297 30.4653 55.079 30.2149 55.0303 29.974C54.8097 28.8946 54.2399 27.9175 53.4086 27.193C52.5773 26.4686 51.5305 26.0369 50.4293 25.9645C50.8299 24.3528 50.661 22.6524 49.951 21.1506C49.241 19.6488 48.0334 18.4377 46.5324 17.7219C45.0314 17.0061 43.3288 16.8294 41.7123 17.2217C40.0959 17.614 38.6646 18.5512 37.6604 19.8751C36.6315 19.3122 35.4266 19.1611 34.2903 19.4527C33.154 19.7442 32.1713 20.4565 31.5419 21.4449C30.8222 20.9119 29.9727 20.5809 29.0815 20.4865C28.1904 20.392 27.2902 20.5374 26.4744 20.9076C25.6586 21.2778 24.957 21.8593 24.4424 22.5917C23.9278 23.324 23.6191 24.1806 23.5482 25.0723C22.9917 24.929 22.4193 24.856 21.8446 24.8552C20.3451 24.8556 18.8881 25.353 17.7022 26.2692C16.5164 27.1855 15.6688 28.4687 15.2924 29.9177Z" fill="#2E8CAD"/>
<path d="M22.5579 21.4305C22.5579 20.9332 22.4101 20.4471 22.1334 20.0336C21.8566 19.6201 21.4633 19.2979 21.003 19.1076C20.5428 18.9173 20.0364 18.8675 19.5478 18.9645C19.0592 19.0615 18.6105 19.301 18.2582 19.6526C17.906 20.0042 17.6661 20.4522 17.5689 20.9399C17.4717 21.4277 17.5216 21.9332 17.7122 22.3926C17.9029 22.852 18.2257 23.2447 18.6399 23.521C19.0541 23.7973 19.541 23.9447 20.0392 23.9447C20.3705 23.9468 20.699 23.8832 21.0055 23.7576C21.312 23.632 21.5905 23.4468 21.8248 23.213C22.0591 22.9791 22.2446 22.7011 22.3704 22.3951C22.4962 22.0891 22.5599 21.7612 22.5579 21.4305ZM18.4509 21.4305C18.4504 21.1165 18.5432 20.8094 18.7176 20.548C18.892 20.2867 19.1402 20.0829 19.4307 19.9625C19.7212 19.842 20.0409 19.8103 20.3495 19.8713C20.658 19.9324 20.9415 20.0834 21.164 20.3054C21.3865 20.5273 21.5381 20.8101 21.5995 21.1181C21.6609 21.4261 21.6294 21.7453 21.5089 22.0354C21.3885 22.3255 21.1846 22.5733 20.9229 22.7477C20.6613 22.922 20.3537 23.0149 20.0392 23.0146C19.6185 23.0136 19.2153 22.8464 18.9177 22.5496C18.6201 22.2527 18.4523 21.8504 18.4509 21.4305Z" fill="#2E8CAD"/>
<path d="M33.6469 13.0046C33.1488 13.0052 32.6621 13.1531 32.2482 13.4297C31.8343 13.7064 31.5119 14.0993 31.3217 14.5588C31.1315 15.0184 31.0821 15.5239 31.1797 16.0115C31.2773 16.4991 31.5175 16.9468 31.87 17.2981C32.2224 17.6494 32.6713 17.8885 33.1599 17.9852C33.6485 18.0818 34.1549 18.0317 34.6149 17.8411C35.075 17.6506 35.4681 17.3281 35.7446 16.9145C36.021 16.5009 36.1685 16.0148 36.1682 15.5176C36.1672 14.8508 35.9011 14.2116 35.4284 13.7404C34.9556 13.2693 34.3149 13.0046 33.6469 13.0046ZM33.6469 17.1044C33.3325 17.1044 33.0252 17.0113 32.7638 16.8369C32.5024 16.6626 32.2987 16.4148 32.1783 16.1248C32.058 15.8349 32.0266 15.5158 32.0879 15.208C32.1492 14.9002 32.3006 14.6175 32.5229 14.3956C32.7452 14.1736 33.0285 14.0225 33.3368 13.9613C33.6452 13.9001 33.9648 13.9315 34.2552 14.0516C34.5457 14.1717 34.7939 14.3751 34.9686 14.636C35.1433 14.897 35.2365 15.2038 35.2365 15.5176C35.2377 15.7263 35.1974 15.9332 35.118 16.1263C35.0385 16.3193 34.9215 16.4947 34.7736 16.6423C34.6258 16.7899 34.4501 16.9067 34.2567 16.9861C34.0633 17.0654 33.856 17.1056 33.6469 17.1044Z" fill="#2E8CAD"/>
<path d="M24.3747 19.9091C24.7651 19.9077 25.1391 19.7519 25.4147 19.4758C25.6902 19.1997 25.845 18.8259 25.845 18.4361C25.8447 18.1449 25.7579 17.8604 25.5956 17.6184C25.4333 17.3765 25.2027 17.1881 24.9331 17.077C24.6634 16.966 24.3669 16.9372 24.0809 16.9945C23.7949 17.0517 23.5323 17.1924 23.3264 17.3987C23.1205 17.6049 22.9806 17.8675 22.9242 18.1532C22.8679 18.4389 22.8977 18.7349 23.01 19.0036C23.1222 19.2724 23.3118 19.5019 23.5547 19.6631C23.7976 19.8242 24.083 19.9099 24.3747 19.9091ZM23.8256 18.4361C23.8256 18.2918 23.883 18.1534 23.9853 18.0513C24.0875 17.9493 24.2262 17.8919 24.3707 17.8919C24.515 17.8923 24.6532 17.9495 24.7554 18.0512C24.8575 18.1529 24.9152 18.2908 24.9159 18.4348C24.9155 18.5789 24.8579 18.717 24.7557 18.8188C24.6535 18.9205 24.5151 18.9777 24.3707 18.9777C24.2992 18.9779 24.2283 18.9639 24.1622 18.9367C24.0961 18.9095 24.036 18.8696 23.9853 18.8191C23.9347 18.7687 23.8945 18.7088 23.8671 18.6429C23.8397 18.5769 23.8256 18.5062 23.8256 18.4348V18.4361Z" fill="#2E8CAD"/>
<path d="M37.3053 12.0641C37.4992 12.0638 37.6911 12.0253 37.8701 11.9509C38.049 11.8765 38.2116 11.7676 38.3484 11.6304C38.4852 11.4932 38.5935 11.3305 38.6673 11.1515C38.741 10.9725 38.7787 10.7808 38.7782 10.5872C38.7772 10.1981 38.6215 9.82523 38.3453 9.55054C38.0692 9.27585 37.6951 9.12177 37.3053 9.12211C37.1081 9.11624 36.9117 9.14995 36.7278 9.22123C36.5439 9.29251 36.3761 9.39993 36.2346 9.5371C36.093 9.67428 35.9804 9.83843 35.9036 10.0198C35.8267 10.2012 35.7871 10.3962 35.7871 10.5931C35.7871 10.7901 35.8267 10.985 35.9036 11.1664C35.9804 11.3478 36.093 11.512 36.2346 11.6491C36.3761 11.7863 36.5439 11.8937 36.7278 11.965C36.9117 12.0363 37.1081 12.07 37.3053 12.0641ZM37.3053 10.0483C37.4489 10.0486 37.5865 10.1053 37.6886 10.2062C37.7906 10.307 37.8487 10.4439 37.8504 10.5872C37.8504 10.7316 37.793 10.87 37.6908 10.972C37.5885 11.0741 37.4499 11.1314 37.3053 11.1314C37.1608 11.1311 37.0224 11.0736 36.9202 10.9717C36.818 10.8697 36.7605 10.7315 36.7602 10.5872C36.7619 10.4439 36.82 10.307 36.922 10.2062C37.024 10.1053 37.1617 10.0486 37.3053 10.0483Z" fill="#2E8CAD"/>
<path d="M40.2437 15.0702C40.453 15.0699 40.6557 14.9971 40.8172 14.8642C40.9787 14.7313 41.089 14.5466 41.1294 14.3416C41.1697 14.1366 41.1375 13.924 41.0384 13.74C40.9392 13.556 40.7792 13.4121 40.5856 13.3327C40.392 13.2533 40.1768 13.2434 39.9767 13.3048C39.7767 13.3661 39.6041 13.4948 39.4884 13.6689C39.3728 13.8431 39.3213 14.0518 39.3426 14.2597C39.364 14.4675 39.4569 14.6615 39.6055 14.8086C39.7752 14.9766 40.0047 15.0707 40.2437 15.0702ZM40.2175 14.1689C40.2175 14.162 40.2202 14.1553 40.2251 14.1504C40.2301 14.1455 40.2367 14.1428 40.2437 14.1428C40.2505 14.1431 40.257 14.1459 40.262 14.1506C40.2663 14.1559 40.2691 14.1622 40.2699 14.1689C40.2699 14.1977 40.2175 14.1977 40.2175 14.1689Z" fill="#2E8CAD"/>
<path d="M51.1981 17.7402C51.1981 17.5015 51.1031 17.2725 50.934 17.1038C50.7649 16.935 50.5356 16.8401 50.2965 16.8401C50.1178 16.8401 49.9432 16.893 49.7947 16.9921C49.6462 17.0912 49.5305 17.2321 49.4622 17.3968C49.3939 17.5616 49.3761 17.7429 49.411 17.9178C49.4459 18.0927 49.5321 18.2532 49.6585 18.3792C49.7849 18.5052 49.9459 18.591 50.1211 18.6256C50.2963 18.6602 50.4779 18.6422 50.6429 18.5738C50.8079 18.5054 50.9488 18.3896 51.0478 18.2412C51.1469 18.0929 51.1996 17.9185 51.1994 17.7402H51.1981ZM50.2689 17.7402C50.2689 17.7368 50.2696 17.7334 50.271 17.7303C50.2723 17.7272 50.2742 17.7244 50.2767 17.7221C50.2791 17.7198 50.282 17.718 50.2852 17.7168C50.2884 17.7156 50.2918 17.7151 50.2951 17.7153C50.3017 17.7158 50.3079 17.7186 50.3126 17.7231C50.3174 17.7276 50.3205 17.7336 50.3214 17.7402C50.3214 17.7471 50.3186 17.7537 50.3137 17.7587C50.3088 17.7636 50.3021 17.7663 50.2951 17.7663C50.2884 17.7657 50.2821 17.7628 50.2773 17.758C50.2725 17.7532 50.2695 17.7469 50.2689 17.7402Z" fill="#2E8CAD"/>
<path d="M54.2639 20.8732C54.2636 20.4831 54.1081 20.1091 53.8317 19.8334C53.5552 19.5577 53.1804 19.4028 52.7897 19.4028C52.498 19.4028 52.213 19.4892 51.9705 19.6509C51.728 19.8127 51.5391 20.0426 51.4275 20.3116C51.316 20.5806 51.2869 20.8766 51.3439 21.1621C51.4008 21.4476 51.5414 21.7098 51.7477 21.9156C51.954 22.1213 52.2168 22.2614 52.5029 22.318C52.7889 22.3747 53.0854 22.3453 53.3548 22.2338C53.6241 22.1222 53.8543 21.9333 54.0161 21.6912C54.1779 21.449 54.2642 21.1643 54.2639 20.8732ZM52.2445 20.8732C52.2449 20.7291 52.3025 20.591 52.4047 20.4892C52.5069 20.3875 52.6453 20.3303 52.7897 20.3303C52.8976 20.3303 53.003 20.3623 53.0927 20.4221C53.1824 20.482 53.2522 20.567 53.2935 20.6665C53.3347 20.7661 53.3454 20.8755 53.3242 20.9811C53.3031 21.0867 53.2511 21.1837 53.1747 21.2598C53.0983 21.3358 53.0011 21.3875 52.8952 21.4084C52.7894 21.4292 52.6797 21.4183 52.5801 21.3769C52.4806 21.3355 52.3955 21.2655 52.3358 21.1759C52.276 21.0862 52.2443 20.9809 52.2445 20.8732Z" fill="#2E8CAD"/>
<path d="M59.7577 13.2347C56.0602 9.54683 51.5823 6.73234 46.6527 4.99789C41.7231 3.26344 36.467 2.65306 31.2702 3.21156C26.0734 3.77005 21.0679 5.48325 16.6211 8.22537C12.1743 10.9675 8.39913 14.6689 5.57273 19.0579C2.74634 23.4469 0.940474 28.4121 0.287715 33.5889C-0.365044 38.7657 0.151874 44.0227 1.80052 48.974C3.44917 53.9253 6.18769 58.4452 9.81503 62.2019C13.4424 65.9585 17.8665 68.8566 22.7625 70.6832C22.8666 70.7217 22.9766 70.7416 23.0875 70.7421C23.3051 70.7419 23.5158 70.6655 23.6828 70.5261C23.8497 70.3867 23.9624 70.1933 24.0011 69.9795C24.0398 69.7657 24.002 69.5451 23.8945 69.3562C23.7869 69.1674 23.6163 69.0222 23.4125 68.946C10.5203 64.1425 1.85831 51.6785 1.85831 37.943C1.85831 19.6996 16.7266 4.85736 35.0021 4.85736C53.2775 4.85736 68.1445 19.697 68.1445 37.9404C68.1491 43.403 66.7969 48.7815 64.2088 53.5946C61.6207 58.4076 57.8775 62.505 53.3142 65.52C53.2565 65.5579 53.0718 65.6848 53.0285 65.7083C47.1866 68.9447 41.1376 70.0252 37.9768 68.411C37.0529 67.9387 36.4331 67.2441 36.1225 66.3428H36.4671C37.4083 66.3418 38.3107 65.9681 38.9762 65.3037C39.6417 64.6393 40.0161 63.7386 40.0171 62.799V62.6368C40.3484 62.4981 40.6313 62.2648 40.8304 61.9662C41.0295 61.6677 41.1359 61.3171 41.1363 60.9585V57.034C41.1409 56.9094 41.1204 56.7851 41.0759 56.6686C41.0313 56.552 40.9637 56.4457 40.877 56.3558C40.7903 56.266 40.6864 56.1945 40.5714 56.1457C40.4564 56.0969 40.3328 56.0717 40.2078 56.0717C40.0829 56.0717 39.9592 56.0969 39.8442 56.1457C39.7292 56.1945 39.6253 56.266 39.5386 56.3558C39.4519 56.4457 39.3843 56.552 39.3398 56.6686C39.2952 56.7851 39.2747 56.9094 39.2794 57.034V60.9205H30.7235V57.0367C30.7282 56.912 30.7076 56.7877 30.6631 56.6712C30.6185 56.5546 30.5509 56.4483 30.4642 56.3584C30.3775 56.2686 30.2736 56.1971 30.1586 56.1483C30.0436 56.0995 29.92 56.0744 29.795 56.0744C29.6701 56.0744 29.5464 56.0995 29.4314 56.1483C29.3164 56.1971 29.2125 56.2686 29.1258 56.3584C29.0391 56.4483 28.9715 56.5546 28.927 56.6712C28.8824 56.7877 28.8619 56.912 28.8666 57.0367V60.9611C28.8669 61.3197 28.9733 61.6703 29.1724 61.9688C29.3715 62.2674 29.6544 62.5007 29.9857 62.6394V62.8017C29.9867 63.7412 30.3611 64.642 31.0266 65.3063C31.6921 65.9707 32.5945 66.3444 33.5357 66.3454H34.1909C34.5618 67.9871 35.5656 69.2652 37.1237 70.0632C38.3594 70.6963 39.9031 71.0037 41.6513 71.0037C45.2039 71.0037 49.5952 69.7309 53.9262 67.3318C54.0087 67.286 54.2761 67.1081 54.3377 67.0701C58.6615 64.21 62.2946 60.4263 64.9742 55.9929C67.6538 51.5594 69.3129 46.5869 69.8316 41.435C70.3503 36.283 69.7156 31.0804 67.9733 26.2033C66.2311 21.3262 63.4249 16.8966 59.7577 13.2347ZM31.8452 62.799V62.7833H38.1615V62.8056C38.1577 63.2518 37.9776 63.6785 37.6603 63.9928C37.343 64.3071 36.9142 64.4836 36.4671 64.4839H33.5357C33.0881 64.4829 32.6591 64.3051 32.3424 63.9894C32.0257 63.6738 31.8469 63.2458 31.8452 62.799Z" fill="#2E8CAD"/>
<path d="M20.6008 38.0491C20.5495 38.0161 20.4921 37.9935 20.4321 37.9827C20.372 37.9719 20.3103 37.973 20.2507 37.986C20.191 37.999 20.1345 38.0236 20.0844 38.0585C20.0343 38.0933 19.9916 38.1377 19.9587 38.1891C17.6917 41.7106 15.0708 43.5276 11.7396 45.8287L11.1041 46.2682C11.0232 46.3246 10.9624 46.4051 10.9304 46.4982C10.8984 46.5914 10.8969 46.6922 10.9261 46.7862C10.9552 46.8803 11.0136 46.9626 11.0927 47.0214C11.1718 47.0802 11.2675 47.1123 11.3661 47.1133C11.46 47.1127 11.5515 47.0835 11.6282 47.0295L12.2625 46.5913C15.5386 44.3243 18.3692 42.3673 20.7345 38.6901C20.8016 38.5873 20.8251 38.4622 20.8001 38.3421C20.775 38.222 20.7034 38.1167 20.6008 38.0491Z" fill="#2E8CAD"/>
</g>
<defs>
<clipPath id="clip0_30_94">
<rect width="70" height="68" fill="white" transform="translate(0 3)"/>
</clipPath>
</defs>
</svg>
